<mxfile host="app.diagrams.net" agent="Mozilla/5.0 (Macintosh; Intel Mac OS X 10_15_7) AppleWebKit/537.36 (KHTML, like Gecko) Chrome/129.0.0.0 Safari/537.36" version="24.7.7">
  <diagram name="Page-1" id="0DpjUvD8NIsLeqmSCjNv">
    <mxGraphModel dx="1020" dy="800" grid="1" gridSize="10" guides="1" tooltips="1" connect="1" arrows="1" fold="1" page="1" pageScale="1" pageWidth="850" pageHeight="1100" math="0" shadow="0">
      <root>
        <mxCell id="0" />
        <mxCell id="1" parent="0" />
        <mxCell id="F4DBn8nOrMb47D9vpAm3-1" value="Web" style="shape=umlActor;verticalLabelPosition=bottom;verticalAlign=top;html=1;outlineConnect=0;" vertex="1" parent="1">
          <mxGeometry x="70" y="110" width="30" height="60" as="geometry" />
        </mxCell>
        <mxCell id="F4DBn8nOrMb47D9vpAm3-2" value="Mobile" style="shape=umlActor;verticalLabelPosition=bottom;verticalAlign=top;html=1;outlineConnect=0;" vertex="1" parent="1">
          <mxGeometry x="70" y="260" width="30" height="60" as="geometry" />
        </mxCell>
        <mxCell id="F4DBn8nOrMb47D9vpAm3-3" value="User Service" style="rounded=0;whiteSpace=wrap;html=1;" vertex="1" parent="1">
          <mxGeometry x="530" y="130" width="120" height="60" as="geometry" />
        </mxCell>
        <mxCell id="F4DBn8nOrMb47D9vpAm3-4" value="User DB" style="shape=cylinder3;whiteSpace=wrap;html=1;boundedLbl=1;backgroundOutline=1;size=15;" vertex="1" parent="1">
          <mxGeometry x="700" y="120" width="90" height="80" as="geometry" />
        </mxCell>
        <mxCell id="F4DBn8nOrMb47D9vpAm3-5" value="" style="rounded=0;whiteSpace=wrap;html=1;" vertex="1" parent="1">
          <mxGeometry x="210" y="110" width="150" height="230" as="geometry" />
        </mxCell>
        <mxCell id="F4DBn8nOrMb47D9vpAm3-6" value="Web Router" style="rounded=0;whiteSpace=wrap;html=1;" vertex="1" parent="1">
          <mxGeometry x="227.5" y="140" width="115" height="60" as="geometry" />
        </mxCell>
        <mxCell id="F4DBn8nOrMb47D9vpAm3-7" value="Mobile Router" style="rounded=0;whiteSpace=wrap;html=1;" vertex="1" parent="1">
          <mxGeometry x="227.5" y="220" width="115" height="60" as="geometry" />
        </mxCell>
        <mxCell id="F4DBn8nOrMb47D9vpAm3-8" value="Order Service" style="rounded=0;whiteSpace=wrap;html=1;" vertex="1" parent="1">
          <mxGeometry x="530" y="240" width="120" height="60" as="geometry" />
        </mxCell>
        <mxCell id="F4DBn8nOrMb47D9vpAm3-9" value="Order DB" style="shape=cylinder3;whiteSpace=wrap;html=1;boundedLbl=1;backgroundOutline=1;size=15;" vertex="1" parent="1">
          <mxGeometry x="700" y="230" width="90" height="80" as="geometry" />
        </mxCell>
        <mxCell id="F4DBn8nOrMb47D9vpAm3-12" value="BFF Service" style="text;strokeColor=none;fillColor=none;align=center;verticalAlign=middle;spacingLeft=4;spacingRight=4;overflow=hidden;points=[[0,0.5],[1,0.5]];portConstraint=eastwest;rotatable=0;whiteSpace=wrap;html=1;" vertex="1" parent="1">
          <mxGeometry x="245" y="300" width="80" height="30" as="geometry" />
        </mxCell>
        <mxCell id="F4DBn8nOrMb47D9vpAm3-15" value="" style="endArrow=none;html=1;rounded=0;entryX=1;entryY=0.5;entryDx=0;entryDy=0;exitX=0;exitY=0.5;exitDx=0;exitDy=0;" edge="1" parent="1" source="F4DBn8nOrMb47D9vpAm3-8" target="F4DBn8nOrMb47D9vpAm3-6">
          <mxGeometry width="50" height="50" relative="1" as="geometry">
            <mxPoint x="400" y="370" as="sourcePoint" />
            <mxPoint x="450" y="320" as="targetPoint" />
          </mxGeometry>
        </mxCell>
        <mxCell id="F4DBn8nOrMb47D9vpAm3-16" value="" style="endArrow=none;html=1;rounded=0;entryX=1;entryY=0.5;entryDx=0;entryDy=0;exitX=0;exitY=0.5;exitDx=0;exitDy=0;" edge="1" parent="1" source="F4DBn8nOrMb47D9vpAm3-3" target="F4DBn8nOrMb47D9vpAm3-6">
          <mxGeometry width="50" height="50" relative="1" as="geometry">
            <mxPoint x="480" y="290" as="sourcePoint" />
            <mxPoint x="353" y="180" as="targetPoint" />
          </mxGeometry>
        </mxCell>
        <mxCell id="F4DBn8nOrMb47D9vpAm3-17" value="" style="endArrow=none;html=1;rounded=0;entryX=1;entryY=0.5;entryDx=0;entryDy=0;exitX=0;exitY=0.5;exitDx=0;exitDy=0;" edge="1" parent="1" source="F4DBn8nOrMb47D9vpAm3-3" target="F4DBn8nOrMb47D9vpAm3-7">
          <mxGeometry width="50" height="50" relative="1" as="geometry">
            <mxPoint x="490" y="300" as="sourcePoint" />
            <mxPoint x="363" y="190" as="targetPoint" />
          </mxGeometry>
        </mxCell>
        <mxCell id="F4DBn8nOrMb47D9vpAm3-18" value="" style="endArrow=none;html=1;rounded=0;entryX=1;entryY=0.5;entryDx=0;entryDy=0;exitX=0;exitY=0.5;exitDx=0;exitDy=0;" edge="1" parent="1" source="F4DBn8nOrMb47D9vpAm3-8" target="F4DBn8nOrMb47D9vpAm3-7">
          <mxGeometry width="50" height="50" relative="1" as="geometry">
            <mxPoint x="500" y="310" as="sourcePoint" />
            <mxPoint x="373" y="200" as="targetPoint" />
          </mxGeometry>
        </mxCell>
        <mxCell id="F4DBn8nOrMb47D9vpAm3-19" value="" style="endArrow=none;html=1;rounded=0;entryX=1;entryY=0.5;entryDx=0;entryDy=0;exitX=0;exitY=0.5;exitDx=0;exitDy=0;exitPerimeter=0;" edge="1" parent="1" source="F4DBn8nOrMb47D9vpAm3-4" target="F4DBn8nOrMb47D9vpAm3-3">
          <mxGeometry width="50" height="50" relative="1" as="geometry">
            <mxPoint x="510" y="320" as="sourcePoint" />
            <mxPoint x="383" y="210" as="targetPoint" />
          </mxGeometry>
        </mxCell>
        <mxCell id="F4DBn8nOrMb47D9vpAm3-20" value="" style="endArrow=none;html=1;rounded=0;entryX=1;entryY=0.5;entryDx=0;entryDy=0;exitX=0;exitY=0.5;exitDx=0;exitDy=0;exitPerimeter=0;" edge="1" parent="1" source="F4DBn8nOrMb47D9vpAm3-9" target="F4DBn8nOrMb47D9vpAm3-8">
          <mxGeometry width="50" height="50" relative="1" as="geometry">
            <mxPoint x="520" y="330" as="sourcePoint" />
            <mxPoint x="393" y="220" as="targetPoint" />
          </mxGeometry>
        </mxCell>
        <mxCell id="F4DBn8nOrMb47D9vpAm3-21" value="" style="endArrow=none;html=1;rounded=0;entryX=0;entryY=0.5;entryDx=0;entryDy=0;exitX=0.5;exitY=0.5;exitDx=0;exitDy=0;exitPerimeter=0;" edge="1" parent="1" source="F4DBn8nOrMb47D9vpAm3-2" target="F4DBn8nOrMb47D9vpAm3-7">
          <mxGeometry width="50" height="50" relative="1" as="geometry">
            <mxPoint x="530" y="340" as="sourcePoint" />
            <mxPoint x="403" y="230" as="targetPoint" />
          </mxGeometry>
        </mxCell>
        <mxCell id="F4DBn8nOrMb47D9vpAm3-22" value="" style="endArrow=none;html=1;rounded=0;entryX=0;entryY=0.5;entryDx=0;entryDy=0;exitX=0.5;exitY=0.5;exitDx=0;exitDy=0;exitPerimeter=0;" edge="1" parent="1" source="F4DBn8nOrMb47D9vpAm3-1" target="F4DBn8nOrMb47D9vpAm3-6">
          <mxGeometry width="50" height="50" relative="1" as="geometry">
            <mxPoint x="540" y="350" as="sourcePoint" />
            <mxPoint x="413" y="240" as="targetPoint" />
          </mxGeometry>
        </mxCell>
        <mxCell id="F4DBn8nOrMb47D9vpAm3-23" value="gRPC" style="text;strokeColor=none;fillColor=none;align=center;verticalAlign=middle;spacingLeft=4;spacingRight=4;overflow=hidden;points=[[0,0.5],[1,0.5]];portConstraint=eastwest;rotatable=0;whiteSpace=wrap;html=1;" vertex="1" parent="1">
          <mxGeometry x="400" y="270" width="80" height="30" as="geometry" />
        </mxCell>
        <mxCell id="F4DBn8nOrMb47D9vpAm3-24" value="REST" style="text;strokeColor=none;fillColor=none;align=center;verticalAlign=middle;spacingLeft=4;spacingRight=4;overflow=hidden;points=[[0,0.5],[1,0.5]];portConstraint=eastwest;rotatable=0;whiteSpace=wrap;html=1;" vertex="1" parent="1">
          <mxGeometry x="120" y="280" width="80" height="30" as="geometry" />
        </mxCell>
        <mxCell id="F4DBn8nOrMb47D9vpAm3-25" value="gRPC" style="text;strokeColor=none;fillColor=none;align=center;verticalAlign=middle;spacingLeft=4;spacingRight=4;overflow=hidden;points=[[0,0.5],[1,0.5]];portConstraint=eastwest;rotatable=0;whiteSpace=wrap;html=1;" vertex="1" parent="1">
          <mxGeometry x="400" y="125" width="80" height="30" as="geometry" />
        </mxCell>
        <mxCell id="F4DBn8nOrMb47D9vpAm3-26" value="REST" style="text;strokeColor=none;fillColor=none;align=center;verticalAlign=middle;spacingLeft=4;spacingRight=4;overflow=hidden;points=[[0,0.5],[1,0.5]];portConstraint=eastwest;rotatable=0;whiteSpace=wrap;html=1;" vertex="1" parent="1">
          <mxGeometry x="120" y="120" width="80" height="30" as="geometry" />
        </mxCell>
      </root>
    </mxGraphModel>
  </diagram>
</mxfile>
